<svg xmlns="http://www.w3.org/2000/svg" width="243.723" height="200"><defs><clipPath id="a"><path fill="none" d="M0 0h243.723v200H0z"/></clipPath><clipPath id="b"><path d="M595.09 481.942v-75.4a486.758 486.758 0 0 0-152.293 0v75.4c-1.7 14.395-2.41 68.028 76.146 91.6 78.557-23.572 77.848-77.206 76.147-91.6z" transform="translate(-442.356 -400.548)" fill="none"/></clipPath></defs><g clip-path="url(#a)"><path d="M243.723 60.961h-32.3V12.485a6.327 6.327 0 0 0-5.391-6.26 572.492 572.492 0 0 0-168.338 0 6.327 6.327 0 0 0-5.391 6.26v48.48H0v85.8c12.859-4.178 38.2-12.239 38.569-11.349 9.657 23.158 32.244 49.271 83.293 64.591 51.134-15.346 73.711-41.52 83.341-64.707.054-.131 25.661 7.287 38.521 11.465z" fill="#fff"/><path d="M201.566 78.951H42.158a6.06 6.06 0 0 1-6.06-6.06v-56.7a6.058 6.058 0 0 1 5.162-5.995 548.229 548.229 0 0 1 161.2 0 6.058 6.058 0 0 1 5.162 5.995v56.7a6.06 6.06 0 0 1-6.056 6.06z" fill="#0e1530"/><path d="M206.981 88.518c-53.973-17.07-116.265-17.07-170.239 0s-17.57 76.426 85.12 107.246c102.69-30.82 85.119-107.246 85.119-107.246z" fill="#0e1530"/><g transform="translate(45.273 13.004)" clip-path="url(#b)"><path fill="#fa8b06" d="M76.588-56.141h190.09v303.702H76.588z"/><path fill="#ffdb41" d="M-113.502-56.141h190.09v303.702h-190.09z"/></g><path d="M192.032 95.521V25.339a448.555 448.555 0 0 0-140.341 0v70.182c-1.567 13.265-2.22 62.689 70.17 84.415 72.391-21.726 71.738-71.15 70.171-84.415z" fill="#0e1530"/><path d="M117.295 38.917l-.852 6.221 5.419-2.956 5.419 2.956-.852-6.221 4.6-4.188-6.19-1.156-2.976-5.731-2.976 5.731-6.19 1.156z" fill="#ffdb41" fill-rule="evenodd"/><path d="M127.28 45.139l-5.418-9.457v6.5zm-10.838 0l5.42-9.456-4.568 3.235zm-3.746-10.409l9.166.952-2.976-2.108zm9.166-6.887v7.839l2.976-2.108zm9.165 6.886l-9.165.953 4.567 3.235z" fill="#fa8b06" fill-rule="evenodd"/><path d="M146.147 33.294l-.665 4.88 4.251-2.319 4.251 2.319-.669-4.881 3.608-3.285-4.855-.906-2.335-4.5-2.335 4.5-4.855.906z" fill="#ffdb41" fill-rule="evenodd"/><path d="M153.981 38.174l-4.251-7.418v5.1zm-8.503 0l4.251-7.418-3.583 2.538zm-2.939-8.165l7.19.747-2.334-1.654zm7.19-5.402v6.149l2.334-1.654z" fill="#fa8b06" fill-rule="evenodd"/><path d="M156.919 30.009l-7.19.747 3.583 2.538z" fill="#fa8b06" fill-rule="evenodd"/><path d="M170.2 33.536l-.514 3.758 3.273-1.786 3.273 1.786-.514-3.758 2.777-2.53-3.738-.7-1.8-3.461-1.8 3.461-3.738.7z" fill="#ffdb41" fill-rule="evenodd"/><path d="M176.235 37.293l-3.273-5.711v3.925zm-6.546 0l3.273-5.712-2.759 1.954zm-2.263-6.287l5.536.575-1.8-1.273zm5.536-4.158v4.734l1.8-1.273z" fill="#fa8b06" fill-rule="evenodd"/><path d="M178.499 31.005l-5.536.575 2.759 1.954z" fill="#fa8b06" fill-rule="evenodd"/><path d="M90.411 33.294l-.668 4.88 4.251-2.319 4.251 2.319-.668-4.88 3.608-3.285-4.855-.907-2.335-4.5-2.335 4.5-4.855.907z" fill="#ffdb41" fill-rule="evenodd"/><path d="M98.244 38.174l-4.251-7.418v5.1z" fill="#fa8b06" fill-rule="evenodd"/><path d="M89.743 38.173l4.251-7.418-3.583 2.538zm-2.939-8.165l7.19.747-2.335-1.654zm7.189-5.401v6.144l2.334-1.654zm7.191 5.402l-7.19.747 3.583 2.538z" fill="#fa8b06" fill-rule="evenodd"/><path d="M68.002 33.536l-.515 3.757 3.273-1.786 3.273 1.786-.514-3.757 2.777-2.53-3.738-.7-1.8-3.461-1.8 3.461-3.738.7z" fill="#ffdb41" fill-rule="evenodd"/><path d="M74.034 37.292l-3.273-5.711v3.926z" fill="#fa8b06" fill-rule="evenodd"/><path d="M67.488 37.292l3.274-5.711-2.759 1.955zm-2.263-6.286l5.535.575-1.8-1.273z" fill="#fa8b06" fill-rule="evenodd"/><path d="M70.761 26.848v4.734l1.8-1.273z" fill="#fa8b06" fill-rule="evenodd"/><path d="M76.297 31.006l-5.536.575 2.759 1.954z" fill="#fa8b06" fill-rule="evenodd"/><path d="M72.684 136.221c-3.784-4.1-11.209-12.9-13.069-20.651l-.561 5.472a45.259 45.259 0 0 0 5.538 15.18zm-2.774 5.586l.508.42.886-.42z" fill="#2d3c5b"/><path d="M82.653 136.221l1.234-17.774s-23.306 1.1-24.261-2.877l-.561 5.472a45.252 45.252 0 0 0 5.538 15.18zm-12.732 5.586l.508.42.886-.42z" fill="#2d3c5b"/><path d="M72.695 136.221c-3.784-4.1-11.209-12.9-13.069-20.651l-.561 5.472a45.252 45.252 0 0 0 5.538 15.18zm-2.774 5.586l.508.42.886-.42z" fill="#172247"/><path d="M160.875 136.221l-1.234-17.774s23.306 1.1 24.261-2.877l.561 5.472a45.252 45.252 0 0 1-5.538 15.18zm12.732 5.586l-.508.42-.886-.42z" fill="#2d3c5b"/><path d="M170.833 136.221c3.784-4.1 11.209-12.9 13.069-20.651l.561 5.472a45.252 45.252 0 0 1-5.538 15.18zm2.774 5.586l-.508.42-.886-.42z" fill="#172247"/><path d="M239.989 141.438a382.266 382.266 0 0 0-236.255 0V64.761h236.255z" fill="#0e1530"/><path d="M149.286 145.497l8.331-8.331v-14.58l-31.243-2.083-3.471 2.083V133zm-54.849 0l-8.331-8.331v-14.58l31.243-2.083 3.471 2.083V133z" fill="#fff"/><path d="M82.561 52.684q.052 4.226.1 8.452-1.905 1.646-3.814 3.426H68.292q-1.935-2.006-3.856-4.2V42.574q1.887-1.588 3.769-3.021 5.173 1.56 10.409 2.813 1.931 2.24 3.872 4.3l.059 4.738q-3.288-.439-6.562-.953l-.026-2.85q-.382-.449-.763-.906-1.744-.35-3.482-.726-.392.31-.784.626l.067 11.715.794.847q1.742.109 3.485.21.392-.358.784-.71l-.02-2.129q-.915-.081-1.83-.166l-.038-4.8q4.185.615 8.391 1.122zm1.936-5.667q1.9-1.345 3.806-2.6 5.279.969 10.6 1.631 1.96 1.727 3.919 3.342l.143 12.276q-1.914 1.418-3.823 2.9H88.584q-1.95-1.616-3.9-3.353-.095-7.1-.187-14.196zm11.714 3.538q-.4-.352-.8-.71-1.754-.2-3.505-.419-.393.271-.785.546l.133 9.512q.4.341.8.677 1.749.065 3.5.122l.785-.6zm16.756.597l.059 9.511q2.168.024 4.337.036v-1.03q2.712.019 5.425.015v4.877h-17.774l-.044-4.026 1.445.029-.1-9.754q-.726-.047-1.452-.1l-.044-4.026q4.783.44 9.58.633l.02 3.884q-.724-.022-1.452-.049zm21.786-4.131q7.521-.523 15-1.657 1.9 1.249 3.785 2.557l-.187 13.461q-1.933 1.643-3.865 3.18h-14.885l.034-3.951 1.445-.024.092-9.7q-.727.044-1.453.083.012-1.973.034-3.949zm7.935 13.423q1.661-.043 3.321-.092.383-.319.766-.642l.122-9.091-.752-.54q-1.665.171-3.333.318l-.124 10.047zm31.204-20.409l-.027 5.524q-.6.136-1.208.269a383.343 383.343 0 0 1 5.2 12.937l1.434-.1v5.9h-9.265l.04-5.291.826-.05-.351-1.077q-3.177.233-6.359.435-.2.525-.407 1.045l.792-.042-.054 4.98h-9.19l.063-4.545 1.441-.061a314.952 314.952 0 0 0 5.435-12.091l-1.041.177.059-4.8q6.346-1.384 12.612-3.21zm-8.049 14.132q1.543-.174 3.083-.36-.755-1.717-1.508-3.375-.786 1.899-1.575 3.735z" fill="#ffdb41"/><path d="M65.972 138.554s11.109 16.663 34.02 25.688l-6.943-15.969-9.72-9.72zm111.779 0s-11.109 16.663-34.02 25.688l6.943-15.969 9.72-9.72z" fill="#fff"/><path d="M74.926 138.554h-8.954s11.109 16.663 34.02 25.688l-5.345-12.295a81.147 81.147 0 0 1-19.721-13.393zm74.151 13.394l-5.346 12.295c22.911-9.026 34.02-25.688 34.02-25.688h-8.954a81.149 81.149 0 0 1-19.72 13.393z" fill="#cad7dd"/><path d="M104.852 165.63l-7.634-17.357 25.688-13.191 25.689 13.191-7.261 17.017s-21.208 4.506-36.482.34z" fill="#2d3c5b"/><path d="M107.166 166.196l-8.188-17.277 23.9-13.832-21.469 14.575 16.216 17.771s-4.663-.166-6.1-.352a28.941 28.941 0 0 1-4.359-.885z" fill="#172247"/><path d="M34.753 83.85l-1.367.076.094-11.658h17.5l-.12 10.769q-1.9.086-3.8.176-4.02 13.489-8.012 27.942 1.084-.2 2.17-.388l-.111 11.221q-11.163 2.549-22.193 5.813l.046-12.533q.9-.205 1.8-.407-3.737-14.238-7.546-29.663-1.691.118-3.381.239V72.265h17.048l-.075 12.044-1.416.087q2.3 8.824 4.577 17.236 2.384-9.095 4.786-17.782zm34.546 32.869q-8.384 1.226-16.719 2.846l.121-10.674q1.267-.191 2.535-.374.148-12.842.3-25.683L53 82.943l.121-10.674h16.693l-.115 10.032-2.539.086-.286 24.6q1.272-.151 2.545-.3-.062 5.017-.12 10.032zm17.203-11.647q1.277-.1 2.555-.187l-.084 9.507q-8.425.763-16.818 1.921l.112-9.941q1.274-.136 2.548-.266l.264-23.977-2.54.077.112-9.941h26.182q3.352 3.32 6.717 6.581l-.05 10.461q-1.409 1.377-2.819 2.767l2.794 2.592-.045 9.355q1.28-.045 2.56-.082l-.038 9.232q-7.163.271-14.315.826l.121-15.531-1.368-1.287q-2.909.141-5.817.311l-.071 7.582zm.159-17.14q2.9-.106 5.8-.193.693-.693 1.386-1.382l.026-3.328q-.682-.657-1.363-1.317-2.9.053-5.8.118-.02 3.051-.048 6.103zm56.72-15.667l.059 9.325-2.132-.025a2821.428 2821.428 0 0 1 9.494 23.1q1.278.081 2.556.168l.082 9.49q-8.2-.724-16.413-1.074l-.042-9.248 1.382.048-.623-1.844q-5.655-.185-11.313-.24l-.664 1.8 1.383.014.015 9.184q-8.194-.126-16.388.12l.03-9.211q1.28-.03 2.561-.053c3.143-7.506 6.266-14.942 9.367-22.374h-1.832v-9.174zm-14.054 21.906q2.707.031 5.413.085-1.366-3.267-2.727-6.514-1.34 3.223-2.686 6.432zm25.876-21.906h26.182q3.417 3.672 6.835 7.539l.366 31.9q-3.329 3.207-6.666 6.275-13.115-2.217-26.334-3.463l-.087-9.535q1.278.094 2.555.194l-.223-23.316-2.542-.057-.086-9.537zm14.535 33.976q2.9.3 5.806.643.679-.616 1.358-1.236l-.253-21.792q-.694-.753-1.388-1.5-2.894-.1-5.791-.187l.268 24.075zM223.7 72.265l.048 12.507-2.122-.138q4.693 15.331 9.276 32.2 1.245.3 2.489.615v13.17q-7.915-2.572-15.914-4.77l-.073-12.093 1.354.289-.615-2.518q-5.544-1.117-11.113-2.1l-.635 2.138 1.36.256.1 11.528q-8.015-1.968-16.094-3.564l-.12-10.724q1.266.194 2.532.395c2.991-8.292 5.982-16.9 8.984-25.892l-1.824-.094-.111-11.2zm-13.879 27.76q2.673.361 5.343.743-1.362-4.39-2.732-8.665-1.308 4.017-2.611 7.925z" fill="#fff"/><path d="M5.352 126.14v11.95l28.878-7.469-26.389 3.485zm202.896-58.504l29.376-.249.249 7.966-2.987-5.477zM5.352 75.852v-9.211h16.68l-14.19 2.49zm216.837 58.254l15.435 4.481.249-13.692-2.739 10.954z" fill="#ffdb41"/><path d="M144.085 157.158l3.611-8.552-12.924-6.795 11.783 7.127z" fill="#172247"/><path d="M149.468 144.805l7.574-7.82v-13.793l-1.93 12.522zm-46.878-4.076l17.365-8.1.219-9.485-2.266 7.511z" fill="#cad7dd"/></g></svg>