<svg xmlns="http://www.w3.org/2000/svg" xmlns:xlink="http://www.w3.org/1999/xlink" width="243.723" height="200" viewBox="0 0 243.723 200"><defs><clipPath id="a"><rect width="243.723" height="200" fill="none"/></clipPath><clipPath id="b"><path d="M595.09,481.942v-75.4a486.758,486.758,0,0,0-152.293,0v75.4c-1.7,14.395-2.41,68.028,76.146,91.6C597.5,549.97,596.791,496.336,595.09,481.942Z" transform="translate(-442.356 -400.548)" fill="none"/></clipPath></defs><g clip-path="url(#a)"><path d="M504.223,409.276h-32.3V360.8a6.327,6.327,0,0,0-5.391-6.26,572.492,572.492,0,0,0-168.338,0,6.327,6.327,0,0,0-5.391,6.26v48.48H260.5v85.8c12.859-4.178,38.2-12.239,38.569-11.349,9.657,23.158,32.244,49.271,83.293,64.591,51.134-15.346,73.711-41.52,83.341-64.707.054-.131,25.661,7.287,38.521,11.465Z" transform="translate(-260.5 -348.315)" fill="#fff"/><path d="M570.968,440.052H411.56a6.06,6.06,0,0,1-6.06-6.06v-56.7a6.058,6.058,0,0,1,5.162-5.995,548.229,548.229,0,0,1,161.2,0,6.058,6.058,0,0,1,5.162,5.995v56.7A6.06,6.06,0,0,1,570.968,440.052Z" transform="translate(-369.402 -361.101)" fill="#0e1530"/><path d="M574.881,665.254h0c-53.973-17.07-116.265-17.07-170.239,0h0S387.072,741.68,489.762,772.5C592.452,741.68,574.881,665.254,574.881,665.254Z" transform="translate(-367.9 -576.736)" fill="#0e1530"/><g transform="translate(45.273 13.004)"><g transform="translate(0 0)" clip-path="url(#b)"><g transform="translate(-113.502 -56.141)"><rect width="190.09" height="303.702" transform="translate(190.09)" fill="#fa8b06"/><rect width="190.09" height="303.702" transform="translate(0)" fill="#ffdb41"/></g></g></g><path d="M607.248,503.618V433.436a448.555,448.555,0,0,0-140.341,0v70.182c-1.567,13.265-2.22,62.689,70.17,84.415C609.468,566.307,608.815,516.883,607.248,503.618Z" transform="translate(-415.216 -408.097)" fill="#0e1530"/><path d="M717.78,471.23l-.852,6.221,5.419-2.956,5.419,2.956-.852-6.221,4.6-4.188-6.19-1.156-2.976-5.731-2.976,5.731-6.19,1.156Z" transform="translate(-600.485 -432.313)" fill="#ffdb41" fill-rule="evenodd"/><path d="M755.418,501.1,750,491.643v6.5Z" transform="translate(-628.138 -455.961)" fill="#fa8b06" fill-rule="evenodd"/><path d="M728.231,501.1l5.42-9.456-4.568,3.235Z" transform="translate(-611.789 -455.961)" fill="#fa8b06" fill-rule="evenodd"/><path d="M713.181,484.331l9.166.952-2.976-2.108Z" transform="translate(-600.485 -449.601)" fill="#fa8b06" fill-rule="evenodd"/><path d="M750,460.156v7.839l2.976-2.108Z" transform="translate(-628.138 -432.313)" fill="#fa8b06" fill-rule="evenodd"/><path d="M759.165,487.817,750,488.77l4.567,3.235Z" transform="translate(-628.138 -453.088)" fill="#fa8b06" fill-rule="evenodd"/><path d="M836.665,455.843,836,460.723l4.251-2.319,4.251,2.319-.669-4.881,3.608-3.285-4.855-.906-2.335-4.5-2.335,4.5-4.855.906Z" transform="translate(-690.518 -422.549)" fill="#ffdb41" fill-rule="evenodd"/><path d="M866.191,479.277l-4.251-7.418v5.1Z" transform="translate(-712.21 -441.103)" fill="#fa8b06" fill-rule="evenodd"/><path d="M844.865,479.275l4.251-7.418-3.583,2.538Z" transform="translate(-699.387 -441.101)" fill="#fa8b06" fill-rule="evenodd"/><path d="M833.057,466.121l7.19.747-2.334-1.654Z" transform="translate(-690.518 -436.112)" fill="#fa8b06" fill-rule="evenodd"/><path d="M861.939,447.158v6.149l2.334-1.654Z" transform="translate(-712.21 -422.551)" fill="#fa8b06" fill-rule="evenodd"/><path d="M869.129,468.855l-7.19.747,3.583,2.538Z" transform="translate(-712.21 -438.846)" fill="#fa8b06" fill-rule="evenodd"/><path d="M935.8,462.844l-.514,3.758,3.273-1.786,3.273,1.786-.514-3.758,2.777-2.53-3.738-.7-1.8-3.461-1.8,3.461-3.738.7Z" transform="translate(-765.6 -429.308)" fill="#ffdb41" fill-rule="evenodd"/><path d="M958.536,480.886l-3.273-5.711V479.1Z" transform="translate(-782.301 -443.593)" fill="#fa8b06" fill-rule="evenodd"/><path d="M942.116,480.884l3.273-5.712-2.759,1.954Z" transform="translate(-772.427 -443.591)" fill="#fa8b06" fill-rule="evenodd"/><path d="M933.026,470.756l5.536.575-1.8-1.273Z" transform="translate(-765.6 -439.75)" fill="#fa8b06" fill-rule="evenodd"/><path d="M955.263,456.156v4.734l1.8-1.273Z" transform="translate(-782.301 -429.308)" fill="#fa8b06" fill-rule="evenodd"/><path d="M960.8,472.86l-5.536.575,2.759,1.954Z" transform="translate(-782.301 -441.855)" fill="#fa8b06" fill-rule="evenodd"/><path d="M612.786,455.843l-.668,4.88,4.251-2.319,4.251,2.319-.668-4.88,3.608-3.285-4.855-.907-2.335-4.5-2.335,4.5-4.855.907Z" transform="translate(-522.375 -422.549)" fill="#ffdb41" fill-rule="evenodd"/><path d="M642.309,479.275l-4.251-7.418v5.1Z" transform="translate(-544.065 -441.101)" fill="#fa8b06" fill-rule="evenodd"/><path d="M620.984,479.273l4.251-7.418-3.583,2.538Z" transform="translate(-531.241 -441.1)" fill="#fa8b06" fill-rule="evenodd"/><path d="M609.179,466.119l7.19.747-2.335-1.654Z" transform="translate(-522.375 -436.111)" fill="#fa8b06" fill-rule="evenodd"/><path d="M638.058,447.156V453.3l2.334-1.654Z" transform="translate(-544.065 -422.549)" fill="#fa8b06" fill-rule="evenodd"/><path d="M645.249,468.856l-7.19.747,3.583,2.538Z" transform="translate(-544.065 -438.847)" fill="#fa8b06" fill-rule="evenodd"/><path d="M525.277,462.844l-.515,3.757,3.273-1.786,3.273,1.786-.514-3.757,2.777-2.53-3.738-.7-1.8-3.461-1.8,3.461-3.738.7Z" transform="translate(-457.275 -429.308)" fill="#ffdb41" fill-rule="evenodd"/><path d="M548.008,480.885l-3.273-5.711V479.1Z" transform="translate(-473.974 -443.593)" fill="#fa8b06" fill-rule="evenodd"/><path d="M531.588,480.883l3.274-5.711-2.759,1.955Z" transform="translate(-464.1 -443.591)" fill="#fa8b06" fill-rule="evenodd"/><path d="M522.5,470.756l5.535.575-1.8-1.273Z" transform="translate(-457.275 -439.75)" fill="#fa8b06" fill-rule="evenodd"/><path d="M544.735,456.156v4.734l1.8-1.273Z" transform="translate(-473.974 -429.308)" fill="#fa8b06" fill-rule="evenodd"/><path d="M550.271,472.861l-5.536.575,2.759,1.954Z" transform="translate(-473.974 -441.855)" fill="#fa8b06" fill-rule="evenodd"/><g transform="translate(59.054 115.57)"><path d="M511.342,833.193c-3.784-4.1-11.209-12.9-13.069-20.651l-.561,5.472a45.259,45.259,0,0,0,5.538,15.18Z" transform="translate(-497.712 -812.542)" fill="#2d3c5b"/><path d="M541.32,917.932l.508.42.886-.42Z" transform="translate(-530.464 -891.695)" fill="#2d3c5b"/></g><g transform="translate(59.065 115.57)"><path d="M521.343,833.193l1.234-17.774s-23.306,1.1-24.261-2.877l-.561,5.472a45.252,45.252,0,0,0,5.538,15.18Z" transform="translate(-497.755 -812.542)" fill="#2d3c5b"/><path d="M541.362,917.932l.508.42.886-.42Z" transform="translate(-530.506 -891.695)" fill="#2d3c5b"/></g><g transform="translate(59.065 115.57)"><path d="M511.385,833.193c-3.784-4.1-11.209-12.9-13.069-20.651l-.561,5.472a45.252,45.252,0,0,0,5.538,15.18Z" transform="translate(-497.755 -812.542)" fill="#172247"/><path d="M541.362,917.932l.508.42.886-.42Z" transform="translate(-530.506 -891.695)" fill="#172247"/></g><g transform="translate(159.641 115.57)"><path d="M902.989,833.193l-1.234-17.774s23.306,1.1,24.261-2.877l.561,5.472a45.252,45.252,0,0,1-5.538,15.18Z" transform="translate(-901.755 -812.542)" fill="#2d3c5b"/><path d="M953.651,917.932l-.508.42-.886-.42Z" transform="translate(-939.685 -891.695)" fill="#2d3c5b"/></g><g transform="translate(170.833 115.57)"><path d="M946.712,833.193c3.784-4.1,11.209-12.9,13.069-20.651l.561,5.472a45.252,45.252,0,0,1-5.538,15.18Z" transform="translate(-946.712 -812.542)" fill="#172247"/><path d="M953.651,917.932l-.508.42-.886-.42Z" transform="translate(-950.877 -891.695)" fill="#172247"/></g><g transform="translate(3.734 64.761)"><path d="M511.755,685.129a382.266,382.266,0,0,0-236.255,0V608.452H511.755Z" transform="translate(-275.5 -608.452)" fill="#0e1530"/></g><path d="M780.566,857.35l8.331-8.331v-14.58l-31.243-2.083-3.471,2.083v10.414Z" transform="translate(-631.28 -711.853)" fill="#fff"/><path d="M614.707,857.35l-8.331-8.331v-14.58l31.243-2.083,3.471,2.083v10.414Z" transform="translate(-520.27 -711.853)" fill="#fff"/><g transform="translate(64.436 39.553)"><g transform="translate(0 0)"><path d="M537.454,520.324q.052,4.226.1,8.452-1.905,1.646-3.814,3.426H523.185q-1.935-2.006-3.856-4.2V510.214q1.887-1.588,3.769-3.021,5.173,1.56,10.409,2.813,1.931,2.24,3.872,4.3l.059,4.738q-3.288-.439-6.562-.953-.013-1.425-.026-2.85-.382-.449-.763-.906-1.744-.35-3.482-.726-.392.31-.784.626.033,5.857.067,11.715.4.428.794.847,1.742.109,3.485.21.392-.358.784-.71-.01-1.064-.02-2.129-.915-.081-1.83-.166-.019-2.4-.038-4.8Q533.248,519.817,537.454,520.324Z" transform="translate(-519.329 -507.193)" fill="#ffdb41"/><path d="M599.913,529.319q1.9-1.345,3.806-2.6,5.279.969,10.6,1.631,1.96,1.727,3.919,3.342.072,6.138.143,12.276-1.914,1.418-3.823,2.9H604q-1.95-1.616-3.9-3.353Q600.005,536.415,599.913,529.319Zm11.714,3.538q-.4-.352-.8-.71-1.754-.2-3.505-.419-.393.271-.785.546.066,4.756.133,9.512.4.341.8.677,1.749.065,3.5.122.393-.3.785-.6Z" transform="translate(-579.852 -521.855)" fill="#ffdb41"/><path d="M689.695,540.309q.03,4.756.059,9.511,2.168.024,4.337.036,0-.515,0-1.03,2.712.019,5.425.015,0,2.439,0,4.877H681.742q-.022-2.013-.044-4.026l1.445.029q-.049-4.877-.1-9.754-.726-.047-1.452-.1-.022-2.013-.044-4.026,4.783.44,9.58.633l.02,3.884Q690.423,540.336,689.695,540.309Z" transform="translate(-641.164 -528.71)" fill="#ffdb41"/><path d="M801.322,532.19q7.521-.523,15-1.657,1.9,1.249,3.785,2.557-.094,6.731-.187,13.461-1.933,1.643-3.865,3.18H801.17l.034-3.951,1.445-.024.092-9.7q-.727.044-1.453.083Q801.3,534.166,801.322,532.19Zm7.935,13.423q1.661-.043,3.321-.092.383-.319.766-.642.061-4.546.122-9.091l-.752-.54q-1.665.171-3.333.318Q809.32,540.589,809.257,545.613Z" transform="translate(-731.005 -524.722)" fill="#ffdb41"/><path d="M902.976,509.131q-.013,2.762-.027,5.524-.6.136-1.208.269c1.717,4.047,3.446,8.345,5.2,12.937l1.434-.1v5.9H899.11l.04-5.291.826-.05q-.176-.541-.351-1.077-3.177.233-6.359.435-.2.525-.407,1.045l.792-.042q-.027,2.49-.054,4.98h-9.19q.031-2.273.063-4.545l1.441-.061c1.816-3.823,3.63-7.839,5.435-12.091l-1.041.177.059-4.8Q896.71,510.957,902.976,509.131Zm-8.049,14.132q1.543-.174,3.083-.36-.755-1.717-1.508-3.375Q895.716,521.427,894.927,523.263Z" transform="translate(-793.52 -508.649)" fill="#ffdb41"/></g></g><path d="M525.5,904.865s11.109,16.663,34.02,25.688l-6.943-15.969-9.72-9.72Z" transform="translate(-459.528 -766.311)" fill="#fff"/><path d="M871.868,904.865s-11.109,16.663-34.02,25.688l6.943-15.969,9.72-9.72Z" transform="translate(-694.117 -766.311)" fill="#fff"/><path d="M534.454,904.865H525.5s11.109,16.663,34.02,25.688l-5.345-12.295A81.147,81.147,0,0,1,534.454,904.865Z" transform="translate(-459.528 -766.311)" fill="#cad7dd"/><path d="M843.194,918.259l-5.346,12.295c22.911-9.026,34.02-25.688,34.02-25.688h-8.954A81.149,81.149,0,0,1,843.194,918.259Z" transform="translate(-694.117 -766.311)" fill="#cad7dd"/><path d="M658.634,921.469,651,904.112l25.688-13.191,25.689,13.191-7.261,17.017S673.908,925.635,658.634,921.469Z" transform="translate(-553.782 -755.839)" fill="#2d3c5b"/><path d="M666.268,922.047,658.08,904.77l23.9-13.832-21.469,14.575,16.216,17.771s-4.663-.166-6.1-.352A28.941,28.941,0,0,1,666.268,922.047Z" transform="translate(-559.102 -755.851)" fill="#172247"/><g transform="translate(9.836 72.268)"><path d="M324.926,650.185l-1.367.076q.047-5.829.094-11.658h17.5q-.06,5.384-.12,10.769-1.9.086-3.8.176-4.02,13.489-8.012,27.942,1.084-.2,2.17-.388-.055,5.611-.111,11.221-11.163,2.549-22.193,5.813.023-6.267.046-12.533.9-.205,1.8-.407-3.737-14.238-7.546-29.663-1.691.118-3.381.239V638.6h17.048q-.038,6.022-.075,12.044l-1.416.087q2.3,8.824,4.577,17.236Q322.524,658.872,324.926,650.185Z" transform="translate(-300.009 -638.603)" fill="#fff"/><path d="M488.425,683.054q-8.384,1.226-16.719,2.846.061-5.338.121-10.674,1.267-.191,2.535-.374.148-12.842.3-25.683l-2.536.109q.061-5.337.121-10.674h16.693q-.058,5.016-.115,10.032l-2.539.086q-.143,12.3-.286,24.6,1.272-.151,2.545-.3Q488.483,678.039,488.425,683.054Z" transform="translate(-428.962 -638.603)" fill="#fff"/><path d="M564.681,671.407q1.277-.1,2.555-.187-.042,4.754-.084,9.507-8.425.763-16.818,1.921.056-4.97.112-9.941,1.274-.136,2.548-.266.132-11.988.264-23.977l-2.54.077q.056-4.97.112-9.941h26.182q3.352,3.32,6.717,6.581-.025,5.231-.05,10.461-1.409,1.377-2.819,2.767,1.4,1.3,2.794,2.592-.023,4.677-.045,9.355,1.28-.045,2.56-.082-.019,4.616-.038,9.232-7.163.271-14.315.826.061-7.766.121-15.531l-1.368-1.287q-2.909.141-5.817.311Q564.716,667.618,564.681,671.407Zm.159-17.14q2.9-.106,5.8-.193.693-.693,1.386-1.382.013-1.664.026-3.328-.682-.657-1.363-1.317-2.9.053-5.8.118Q564.869,651.216,564.841,654.268Z" transform="translate(-488.015 -638.603)" fill="#fff"/><path d="M738.073,638.6q.03,4.663.059,9.325L736,647.9c3.147,7.572,6.312,15.249,9.494,23.1q1.278.081,2.556.168.041,4.745.082,9.49-8.2-.724-16.413-1.074l-.042-9.248,1.382.048-.623-1.844q-5.655-.185-11.313-.24l-.664,1.8,1.383.014q.008,4.592.015,9.184-8.194-.126-16.388.12.015-4.606.03-9.211,1.28-.03,2.561-.053c3.143-7.506,6.266-14.942,9.367-22.374h-1.832q0-4.587,0-9.174Zm-14.054,21.906q2.707.031,5.413.085-1.366-3.267-2.727-6.514Q725.365,657.3,724.019,660.509Z" transform="translate(-604.528 -638.603)" fill="#fff"/><path d="M883.927,638.6h26.182q3.417,3.672,6.835,7.539.183,15.949.366,31.9-3.329,3.207-6.666,6.275-13.115-2.217-26.334-3.463-.043-4.767-.087-9.535,1.278.094,2.555.194-.112-11.658-.223-23.316l-2.542-.057Q883.97,643.37,883.927,638.6Zm14.535,33.976q2.9.3,5.806.643.679-.616,1.358-1.236-.127-10.9-.253-21.792-.694-.753-1.388-1.5-2.894-.1-5.791-.187Q898.328,660.542,898.462,672.579Z" transform="translate(-738.56 -638.603)" fill="#fff"/><path d="M1062.354,638.6q.024,6.253.048,12.507l-2.122-.138q4.693,15.331,9.276,32.2,1.245.3,2.489.615v13.17q-7.915-2.572-15.914-4.77l-.073-12.093,1.354.289q-.308-1.263-.615-2.518-5.544-1.117-11.113-2.1-.318,1.072-.635,2.138l1.36.256q.05,5.764.1,11.528-8.015-1.968-16.094-3.564-.06-5.362-.12-10.724,1.266.194,2.532.395c2.991-8.292,5.982-16.9,8.984-25.892l-1.824-.094q-.055-5.6-.111-11.2Zm-13.879,27.76q2.673.361,5.343.743-1.362-4.39-2.732-8.665Q1049.778,662.455,1048.475,666.363Z" transform="translate(-848.49 -638.603)" fill="#fff"/></g><path d="M282,855v11.95l28.878-7.469-26.389,3.485Z" transform="translate(-276.648 -728.86)" fill="#ffdb41"/><path d="M1097,619.249l29.376-.249.249,7.966-2.987-5.477Z" transform="translate(-888.752 -551.613)" fill="#ffdb41"/><path d="M282,625.211V616h16.68l-14.19,2.49Z" transform="translate(-276.648 -549.359)" fill="#ffdb41"/><path d="M1153,859.211l15.435,4.481.249-13.692-2.739,10.954Z" transform="translate(-930.811 -725.105)" fill="#ffdb41"/><path d="M811.175,933.294l3.611-8.552-12.924-6.795,11.783,7.127Z" transform="translate(-667.09 -776.136)" fill="#172247"/><path d="M860.892,864.77l7.574-7.82V843.157l-1.93,12.522Z" transform="translate(-711.424 -719.965)" fill="#cad7dd"/><path d="M672.589,860.555l17.365-8.1.219-9.485-2.266,7.511Z" transform="translate(-569.999 -719.826)" fill="#cad7dd"/></g></svg>